<?xml version="1.0" encoding="utf-8"?>
<!-- Generator: Adobe Illustrator 24.1.2, SVG Export Plug-In . SVG Version: 6.00 Build 0)  -->
<svg version="1.1" id="Layer_1" xmlns="http://www.w3.org/2000/svg" xmlns:xlink="http://www.w3.org/1999/xlink" x="0px" y="0px"
	 viewBox="0 0 1024 1024" style="enable-background:new 0 0 1024 1024;" xml:space="preserve">
<style type="text/css">
	.st0{fill:#777876;}
	.st1{fill:#133051;}
	.st2{fill:#DFEFF1;}
	.st3{fill:#4AAEBE;}
	.st4{fill:#0B1A34;}
	.st5{fill:#419CB0;}
	.st6{fill:#E1F1F2;}
	.st7{fill:#4DB0BE;}
	.st8{fill:#51B6C4;}
	.st9{fill:#113054;}
	.st10{fill:#39809E;}
	.st11{fill:#3E9EB0;}
	.st12{fill:#E1EFF2;}
	.st13{fill:#79C5CC;}
	.st14{fill:#44B0C1;}
	.st15{fill:#4DA5B7;}
	.st16{fill:#50B1BD;}
	.st17{fill:#3C84A0;}
	.st18{fill:#3B9FB6;}
	.st19{fill:#3383A2;}
	.st20{fill:#306F90;}
	.st21{fill:#2E7997;}
	.st22{fill:#327C99;}
	.st23{fill:#2B6283;}
	.st24{fill:#3C8DA5;}
	.st25{fill:#41ADC0;}
	.st26{fill:#D8EEEE;}
	.st27{fill:#4ABBC7;}
	.st28{fill:#123255;}
	.st29{fill:#46B5C3;}
	.st30{fill:#E7F1F3;}
	.st31{fill:#11294A;}
	.st32{fill:#9ABBD2;}
	.st33{fill:#52BAC6;}
	.st34{fill:#50BBC6;}
	.st35{fill:#3DA8BD;}
	.st36{fill:#6BBEC9;}
	.st37{fill:#0F2F52;}
	.st38{fill:#E6F0F4;}
	.st39{fill:#C0DEE8;}
	.st40{fill:#93C4D3;}
	.st41{fill:#3FB1C1;}
	.st42{fill:#488CA8;}
	.st43{fill:#67A2B6;}
	.st44{fill:#2E7796;}
	.st45{fill:#357598;}
	.st46{fill:#E0EAEF;}
	.st47{fill:#D0EAEC;}
	.st48{fill:#49B5C2;}
	.st49{fill:#2D6A8E;}
	.st50{fill:#335B84;}
	.st51{fill:#305F8C;}
	.st52{fill:#071029;}
	.st53{fill:#0F2646;}
</style>
<g id="_x23_777876ff">
	<path class="st0" d="M158,644.8c-1.6-0.6-1.6-1.2,0-1.8V644.8z"/>
</g>
<g>
	<g id="_x23_133051ff_1_">
		<path class="st1" d="M484.5,112.1c9.2-21.2,21.2-41.8,39.1-56.9c2.3,23.3,9.6,46.5,23.5,65.5c17.9,25.9,45.7,43.2,61.7,70.7
			c6.8-15.2,16.2-29.4,29.1-40.1c13.9-12,30.9-19.8,48.3-25.5c-3.3,10.6-6.3,21.4-7.7,32.4c-0.5-3.1-1.2-6.2-1.8-9.3
			c-2.4,13.3-4,27.4,2.3,40c3.1,20.6,10.5,40.4,11.1,61.3c16.6-15.9,38.7-24.1,60.5-30.2c-9.3,16.3-14.9,34.8-14.5,53.7
			c0.5,18.2-0.8,36.8-7,54.1c-8.9,25.8-30.3,46.5-55.5,56.4c4.7-4.6,9.6-9.1,15.3-12.4c8.8-5.4,16.2-12.9,21.9-21.5
			c3.6-4.7,2.1-10.8,1.9-16.2c4.5-5.4,9.6-10.7,11.3-17.7c2.3-9.3,4.7-18.9,3.6-28.5c-0.8-6.2-8-7.8-12.6-10.5
			c0.2-6.9,0.6-13.9,1.1-20.8c-2.4,1.9-4.7,3.8-7,5.7c-9.2,6.6-16.5,15.8-20.2,26.6c-4.9-0.9-9.8-1.8-14.6-2.7
			c-1.5,9.3-1.8,19.3-6.6,27.6c-1.9,3.6-6.5,3.1-9.8,4c9.4-20.5,14.2-43.7,11.1-66.3c-3.9-30.1-14.4-59.7-10.4-90.4
			c-0.9,0.8-2.8,2.3-3.7,3.1c-16,12.6-27.6,31.2-29.9,51.6c-1.3,11,1.8,21.8,3.7,32.5c2.3,12.2,2.7,24.7,1.9,37.2
			c-5.3-1.3-10.7-2.5-16-3.7c-1.7,18.9-6.6,37.3-8.9,56.1c-0.2,5-5.3,6.6-8.9,8.8c0.7-2,0.5-4.1-0.4-6c2.2-4.7,4.8-9.2,6.1-14.1
			c8.8-29.7,11.3-62,2.8-92.1c-6-20-17-38.4-31.1-53.8c-12.2-14.1-27.2-25.5-38.6-40.2c-9.3-11.7-17.6-24.4-22.8-38.6
			c-0.3,0.7-0.8,2.2-1.1,2.9c-11.1,16.4-17.4,35.8-17.5,55.6c-1.2,23.7,4.8,47.5,17.4,67.6c6.4,10.8,14.9,20,23.4,29.1
			c-4.3,3.5-8.6,6.9-13,10.3c1.6,3.9,3.1,7.8,4.9,11.5c-14.6-12.9-32.1-22.6-51.1-26.9c-40.1-10.4-82.6,2.3-122.1-11.3
			c-2.5-0.8-5.1-1.6-7.6-2.4c5.8,19.7,15.9,38.4,30.7,52.9c8.7,7.8,18.3,14.4,28.2,20.5c-6.2,1.8-12.4,3.9-18.5,5.9
			c6.7,7.7,16.1,11.8,24.8,16.6l-1.8,0.8c-24.2-7-45.1-22.9-60.7-42.5c-21.6-26.1-29.4-60.1-33.7-93c17,11.5,36.1,20.6,56.4,24.3
			c18.5,4,37.5,3.4,56.3,2.6c-12.6-8-24.7-17.6-31.9-31c-13.4-23.5-14.3-52.1-7.9-78c4.8,5.8,9.2,12,14.6,17.4
			c14.9,15.1,34.5,24.6,49.6,39.5c13.5,13.3,9.9,34.7,21,49.5c3.8,6.6,11.3,9.3,18,11.8c-4.7-10.4-9.7-20.7-12.6-31.8
			C469.9,173.7,472.4,140.8,484.5,112.1z"/>
	</g>
	<g id="_x23_dfeff1ff_1_">
		<path class="st2" d="M512.8,101.8c5.2,14.1,13.5,26.8,22.8,38.6c11.4,14.7,26.4,26.1,38.6,40.2c14.1,15.4,25.1,33.7,31.1,53.8
			c8.5,30.1,6,62.4-2.8,92.1c-1.3-23.3,2.1-47-3.3-70c-3-13.5-8-26.5-14.8-38.5c-9.9-17.6-25.8-30.6-39-45.6
			c-8.5-9.2-16.4-19-22.1-30.2c-6-11.7-7.9-24.9-11.7-37.4C511.9,104,512.5,102.6,512.8,101.8z"/>
	</g>
	<g id="_x23_4aaebeff_1_">
		<path class="st3" d="M494.1,160.3c0.2-19.8,6.4-39.2,17.5-55.6c3.7,12.5,5.6,25.7,11.7,37.4c5.7,11.1,13.6,21,22.1,30.2
			c-7.4-0.3-13.9,3.3-20,6.9c-1.2-1.5-2.4-3.1-3.5-4.6c5.4,14.2,13,27.5,20.1,40.9c-7.3,0.5-16.8,3.4-22.1-3.4
			c-14-16.6-12.9-39.5-20.1-58.9C497.8,155.6,495.9,158,494.1,160.3z"/>
	</g>
	<g id="_x23_0b1a34ff_1_">
		<path class="st4" d="M676.5,149c0.6,3.1,1.3,6.2,1.8,9.3c-0.6,10.2-0.4,20.5,0.5,30.7C672.5,176.4,674.1,162.3,676.5,149z"/>
	</g>
	<g id="_x23_419cb0ff_1_">
		<path class="st5" d="M499.7,153.3c7.2,19.4,6.1,42.3,20.1,58.9c5.3,6.7,14.8,3.9,22.1,3.4c7.4,13.9,16,27.2,21.6,41.9
			c4.6,11.8,7.2,24.3,9.1,36.8c-9-23.6-22.2-45.9-40.4-63.5c-5.3-6.2-13.7-4-20.6-2.8c-12.6-20.1-18.6-43.9-17.4-67.6
			C495.9,158,497.8,155.6,499.7,153.3z"/>
	</g>
	<g id="_x23_e1f1f2ff_1_">
		<path class="st6" d="M654.8,164.3c0.9-0.8,2.8-2.3,3.7-3.1c-4.1,30.7,6.4,60.3,10.4,90.4c3.2,22.5-1.7,45.7-11.1,66.3
			c-3,5.2-6.6,10-10,14.9c3.5-14.8,11.7-28.4,12.2-43.8c1.6-15.4,0.8-31-2.3-46.1c-3.1-15.1-7.8-30-7.7-45.5
			C650,186.1,653,175.2,654.8,164.3z"/>
	</g>
	<g id="_x23_4db0beff_1_">
		<path class="st7" d="M624.8,215.9c2.3-20.4,13.9-39,29.9-51.6c-1.8,11-4.8,21.8-4.8,33c-0.2,15.5,4.5,30.5,7.7,45.5
			c-4.8,5.3-9.2,11-12.6,17.3c-3.8,8.2-3.9,17.5-4.6,26.3c6.4-0.9,12.9-1.6,19.3-2.5c0,1.2,0,3.7,0.1,5c-0.4,15.5-8.7,29-12.2,43.8
			c-4.5,6.6-10.2,12.2-15.8,17.7c-4.7-2.1-9.3-4.2-14-6.3c6.8-18.9,10.9-38.7,12.7-58.7c0.7-12.4,0.4-24.9-1.9-37.2
			C626.6,237.7,623.5,226.9,624.8,215.9z"/>
	</g>
	<g id="_x23_51b6c4ff_1_">
		<path class="st8" d="M525.4,179.2c6.1-3.6,12.7-7.2,20-6.9c13.2,15,29.1,28,39,45.6c6.8,12,11.8,25.1,14.8,38.5
			c-1.9,7.8-5.4,15.1-10.2,21.5c-4.7-16.1-13.2-30.7-21.9-44.8C555.3,213.5,537.9,198.3,525.4,179.2z"/>
	</g>
	<g id="_x23_113054ff_1_">
		<path class="st9" d="M521.8,174.7c1.2,1.5,2.4,3,3.5,4.6c12.5,19.1,30,34.3,41.7,53.9c8.7,14.2,17.2,28.8,21.9,44.8
			c5.7,20.5,5,41.8,7.4,62.7c0.8,1.9,1.1,4,0.4,6c3.5-2.2,8.7-3.8,8.9-8.8c2.3-18.8,7.2-37.2,8.9-56.1c5.3,1.3,10.7,2.4,16,3.7
			c-1.7,20-5.8,39.8-12.7,58.7c4.7,2.1,9.3,4.2,14,6.3c5.7-5.6,11.3-11.2,15.8-17.7c3.4-4.9,7-9.7,10-14.9c3.4-0.9,8-0.4,9.8-4
			c4.9-8.3,5.2-18.3,6.6-27.6c4.9,0.9,9.7,1.8,14.6,2.7c-0.9,3.4-1.6,6.8-2.4,10.1c-5,24.5-19.8,45.6-37.4,62.7
			c3.5,1.6,6.8,5.3,11.1,4.3c7.7-1.6,14.7-5.8,21-10.4c15.8-10.4,26.1-27.4,30.8-45.4c2.7-10.7,2.6-21.9,3.1-32.8
			c4.6,2.7,11.8,4.3,12.6,10.5c1,9.6-1.3,19.2-3.6,28.5c-1.8,7-6.8,12.4-11.3,17.7c0.2,5.4,1.6,11.5-1.9,16.2
			c-5.7,8.6-13.1,16.2-21.9,21.5c-5.7,3.4-10.6,7.8-15.3,12.4c-0.4,0.3-1.2,0.8-1.6,1.1c3.1,4.7,5.8,9.8,8.4,14.8
			c40.7,6.2,81.3,14.3,120,28.4c33,11.8,66.2,26.2,92.1,50.4c-11.9-2-23.2-6.2-34.8-9.4c-36.9-9.3-74.5-15.4-112.4-18.3
			c1.2-0.7,3.6-2.2,4.8-2.9c-18.2,0.6-36.6-0.8-54.8,0.8c-7.4,1.2-16.6,1.2-20.8,8.3c-11,5.9-22.1,14.6-24.3,27.6
			c-3.8,21.8,7.4,42.1,15.7,61.4c17.7,39.7,23.5,85,13.2,127.5c-0.8-0.4-2.4-1.2-3.2-1.7c-2.2,7-3.5,14.6-7.9,20.7
			c-5.8,1.1-11.6,0.6-17.4,0.4c8.6-25,15.7-51.3,12.6-78c-0.8-9-2.8-17.8-4.8-26.5c-0.7,1-2.2,3.1-2.9,4.1c-2.2-9.3-5.4-18.2-9.2-27
			c-5.6-16-13.6-31.1-18.4-47.4c-4-13.3-5.8-27.8-1.8-41.3c3.9-12.1,12-22,20.2-31.5c-6.2-3.1-12.3-6.3-18.1-9.9
			c3.7-2.4,7.3-5.1,10.9-7.7c5.9-4.6,12.3-8.4,17.6-13.6c1.2-1.2,1-3,1.3-4.5c-9.3-19.6-25.7-36.7-46.8-43.3
			c-19.4-5.8-41.5-3.1-58.3,8.3c-14.6,10-26.4,24.6-31.7,41.6c-8.1-1.5-16.3-2.6-24.6-3.2c1.6-5.4,3.7-10.6,6-15.8
			c-19.2,4.4-37.2,13.5-56.9,15.9c-26.3,4.5-53.5-2-76.2-15.5c-16.9-11.3-30.8-26.9-40.3-44.8c0.4-2.5,0.7-4.9,1.1-7.4
			c14.1,1.2,28.3,2.7,42.4,1.7c10.2-0.7,20.1-3.4,30-5.9c-0.2-0.9-0.7-2.7-0.9-3.6c2.4-1,4.7-2.1,7.1-3.2l1.8-0.8
			c-8.7-4.9-18.1-8.9-24.8-16.6c6.2-2,12.3-4.1,18.5-5.9c16,9.5,34.7,13.7,53.2,14.2c24.1,0.4,47.9,6.5,69.1,18
			c-7.8-14.1-18.8-27.2-33.8-34c-3.9-1.8-7.7-3.5-11.7-4.9c-19.2-8.2-40-11.1-59.7-18c-4.9-1.6-9.8-3.4-14.8-4.8
			c-0.7-0.9-2.2-2.6-2.9-3.5c20.7,5.1,42.2,5.3,63.3,8.7c26.1,4.5,51.7,16,69.5,36c6.6,6.8,10.5,15.7,16.8,22.7
			c3.3,0,6.6-0.6,9.9-1.1c-0.4-1.3-1.2-3.8-1.5-5c-6.4-23-19.4-43.5-35.4-60.9c-1.8-3.8-3.3-7.7-4.9-11.5c4.4-3.4,8.7-6.8,13-10.3
			c6.9,7.5,14.1,14.9,20.6,22.8c7.4,9.1,12.9,19.5,18.8,29.6c-0.5-5.1-0.9-10.2-1.7-15.3c-1.8-12.5-4.5-25-9.1-36.8
			c-5.6-14.7-14.2-28.1-21.6-41.9C534.8,202.1,527.2,188.9,521.8,174.7 M424.8,353.7c-19.1,6.1-38.6,12-58.8,11.7
			c7,8.4,15.5,15.5,25.2,20.6c14.3,6.8,30.3,10.4,46.1,8.4c17.7-1.4,33.9-9.2,50.9-13.6c10.1-2.9,21-1.7,30.9-5.6
			c1.8-2.5,3.7-5,5.6-7.5c-10.1-5.5-20-11.5-30.8-15.8c-4.5-1.6-9.3-3.6-14.1-2.3C461.5,345.4,442.4,347.8,424.8,353.7 M659.4,432
			c20.4,1.3,40.9-0.9,61.4,0.5c22.3,1.7,44.5,4.2,66.4,8.6c-7.7-2.7-15.6-5.2-23.6-6.8c-26.6-5.4-53-11.8-80-14.9
			C673.5,417.4,666,425.8,659.4,432z"/>
	</g>
	<g id="_x23_39809eff_1_">
		<path class="st10" d="M511.5,228c7-1.2,15.3-3.4,20.6,2.8c18.2,17.6,31.4,39.9,40.4,63.5c0.8,5.1,1.2,10.2,1.7,15.3
			c-5.9-10.1-11.4-20.5-18.8-29.6c-6.5-8-13.7-15.3-20.6-22.8C526.4,247.9,517.9,238.7,511.5,228z"/>
	</g>
	<g id="_x23_3e9eb0ff_1_">
		<path class="st11" d="M346,238.2c2.5,0.8,5,1.6,7.6,2.4c10.6,8.8,24.1,12.6,37,17c-7.2-0.2-14.4-0.4-21.6-1.1
			c-1.2,4.8-3,9.5-3,14.6c3.8,6.2,10,10.3,15.7,14.6c-1.7,1.8-3.4,3.6-5,5.5C362,276.7,351.8,257.9,346,238.2z"/>
	</g>
	<g id="_x23_e1eff2ff_1_">
		<path class="st12" d="M390.6,257.6c-12.8-4.4-26.3-8.2-37-17c39.5,13.6,82.1,0.9,122.1,11.3c19,4.3,36.5,14.1,51.1,26.9
			c16.1,17.4,29.1,38,35.4,60.9c-0.5,0.4-1.3,1.1-1.8,1.4c-8.9-26.8-29.8-48.3-53.9-62.3c-19-11.2-41.1-16-62.9-17
			C425.9,261.1,408.2,259.9,390.6,257.6z"/>
	</g>
	<g id="_x23_79c5ccff_1_">
		<path class="st13" d="M657.6,242.8c3.1,15.1,3.9,30.8,2.3,46.1c0-1.3,0-3.7-0.1-5c-6.4,0.9-12.9,1.6-19.3,2.5
			c0.7-8.9,0.8-18.1,4.6-26.3C648.5,253.8,652.8,248.1,657.6,242.8z"/>
	</g>
	<g id="_x23_44b0c1ff_1_">
		<path class="st14" d="M369,256.5c7.2,0.7,14.4,0.9,21.6,1.1c17.6,2.2,35.3,3.5,53.1,4.3c21.9,1,43.9,5.8,62.9,17
			c24.1,14,44.9,35.5,53.9,62.3c0.4-0.4,1.3-1.1,1.8-1.4c0.4,1.3,1.1,3.8,1.5,5c-3.3,0.5-6.6,1.1-9.9,1.1
			c-6.3-7.1-10.1-15.9-16.8-22.7c-17.8-20-43.4-31.5-69.5-36c-21-3.4-42.5-3.6-63.3-8.7c0.7,0.9,2.2,2.6,2.9,3.5
			c-7.7-0.9-14.9,2-20.9,6.6c-1.6-1-3.1-2-4.6-3c-5.7-4.2-11.9-8.4-15.7-14.6C366,266.1,367.7,261.3,369,256.5z"/>
	</g>
	<g id="_x23_4da5b7ff_1_">
		<path class="st15" d="M589,277.9c4.8-6.4,8.2-13.7,10.2-21.5c5.5,23,2,46.7,3.3,70c-1.3,5-4,9.5-6.1,14.1
			C594,319.7,594.7,298.4,589,277.9z"/>
	</g>
	<g id="_x23_50b1bdff_1_">
		<path class="st16" d="M709,262.4c2.3-1.9,4.7-3.8,7-5.7c-0.4,6.9-0.9,13.8-1.1,20.8c-0.5,11-0.3,22.1-3.1,32.8
			c-4.8,18-15.1,35-30.8,45.4c7.9-15.4,17.4-30.8,17.9-48.7C699.4,291.5,705.5,277.2,709,262.4z"/>
	</g>
	<g id="_x23_3c84a0ff_1_">
		<path class="st17" d="M688.9,289c3.7-10.8,11-20,20.2-26.6c-3.5,14.9-9.7,29.2-10.1,44.7c-4.4-2.2-8.6-4.8-12.4-7.9
			C687.2,295.8,688,292.4,688.9,289z"/>
	</g>
	<g id="_x23_3b9fb6ff_1_">
		<path class="st18" d="M386.3,288.7c6-4.6,13.2-7.5,20.9-6.6c5,1.4,9.9,3.1,14.8,4.8c19.7,6.9,40.5,9.8,59.7,18
			C449.4,309.3,414.6,305.9,386.3,288.7z"/>
	</g>
	<g id="_x23_3383a2ff_1_">
		<path class="st19" d="M376.7,291.1c1.7-1.8,3.3-3.6,5-5.5c1.5,1,3,2,4.6,3c28.3,17.2,63.1,20.7,95.4,16.2c4,1.4,7.8,3.1,11.7,4.9
			c-14,0.8-29.1,1.5-40.6,10.6c1.7,1.8,3.5,3.6,5.3,5.3c-18.5-0.5-37.2-4.6-53.2-14.2C395,305.5,385.3,298.9,376.7,291.1z"/>
	</g>
	<g id="_x23_306f90ff_1_">
		<path class="st20" d="M649.1,361.8c17.7-17.1,32.5-38.2,37.4-62.7c3.9,3,8,5.7,12.4,7.9c-0.5,17.9-10,33.3-17.9,48.7
			c-6.3,4.7-13.2,8.8-21,10.4C655.9,367.1,652.6,363.4,649.1,361.8z"/>
	</g>
	<g id="_x23_2e7997ff_1_">
		<path class="st21" d="M452.8,320.4c11.5-9.2,26.6-9.8,40.6-10.6c15,6.8,26,19.9,33.8,34c-21.2-11.5-45-17.6-69.1-18
			C456.3,324,454.5,322.2,452.8,320.4z"/>
	</g>
	<g id="_x23_327c99ff_1_">
		<path class="st22" d="M424.8,353.7c17.6-5.9,36.7-8.4,55-4.2c-6,1.3-11.9,2.9-17.9,4.2c6.8,0.5,13.3,2.2,19.7,4.5
			c-16.7-0.4-33.8-1.5-50.1,3.3C429.2,358.9,427,356.3,424.8,353.7z"/>
	</g>
	<g id="_x23_2b6283ff_1_">
		<path class="st23" d="M479.8,349.6c4.8-1.3,9.7,0.7,14.1,2.3c10.7,4.3,20.6,10.4,30.8,15.8c-1.9,2.5-3.8,5-5.6,7.5
			c-11.4-7.9-24.6-12.4-37.5-17c-6.4-2.3-12.9-4-19.7-4.5C467.8,352.4,473.8,350.9,479.8,349.6z"/>
	</g>
	<g id="_x23_3c8da5ff_1_">
		<path class="st24" d="M366,365.4c20.3,0.3,39.7-5.6,58.8-11.7c2.2,2.6,4.4,5.2,6.7,7.8c-15.7,4-31.5,7.8-47.6,10
			c4.1,2.4,8.1,4.8,12.3,7.1c-1.7,2.5-3.3,4.9-5,7.4C381.5,380.9,373,373.8,366,365.4z"/>
	</g>
	<g id="_x23_41adc0ff_1_">
		<path class="st25" d="M431.5,361.5c16.3-4.8,33.3-3.7,50.1-3.3c13,4.5,26.2,9.1,37.5,17c-9.9,4-20.8,2.7-30.9,5.6
			c-17,4.4-33.2,12.2-50.9,13.6c-15.8,2-31.8-1.6-46.1-8.4c1.6-2.5,3.3-4.9,5-7.4c-4.1-2.3-8.2-4.7-12.3-7.1
			C400,369.3,415.7,365.6,431.5,361.5z"/>
	</g>
	<g id="_x23_d8eeeeff_1_">
		<path class="st26" d="M553,375.1c16.9-11.5,38.9-14.1,58.3-8.3c21,6.6,37.5,23.7,46.8,43.3c-11.4-5.6-18.4-17-29.1-23.5
			c-18-12.2-41.6-14.2-62.2-7.8c-16.4,5.2-29.2,17.8-38.5,31.8c-6,8.7-8.3,19.1-10.2,29.3c-0.2-2.3-0.5-4.7-0.6-7
			c0.9-5.5,2.2-10.9,3.8-16.2C526.7,399.7,538.4,385.1,553,375.1z"/>
	</g>
	<g id="_x23_4abbc7ff_1_">
		<path class="st27" d="M566.9,378.7c20.5-6.3,44.1-4.3,62.2,7.8c10.7,6.5,17.7,17.9,29.1,23.5c-0.3,1.5-0.1,3.4-1.3,4.5
			c-5.3,5.2-11.8,9.1-17.6,13.6c-4.7-6.2-11.2-10.4-18.4-13c-1.6-4.4-2.7-9.1-5.4-12.9c-5.3-5.6-14.8-6.9-21.2-2.5
			c-3.9,3.2-6.1,7.9-8.8,12.1c-6.2,1.6-12.8,2.7-18.2,6.4c-5.9,4-10.2,9.9-13.9,16c-10.4-5.8-13.9-18.8-25-23.7
			C537.7,396.5,550.5,383.9,566.9,378.7z"/>
	</g>
	<g id="_x23_123255ff_1_">
		<path class="st28" d="M594.2,399.8c6.4-4.4,15.9-3.1,21.2,2.5c2.7,3.8,3.8,8.5,5.4,12.9c-3.4,7.2-8.4,16.4-17.9,15.2
			c-10.3,0-15.5-9.9-17.5-18.5C588.1,407.7,590.3,403,594.2,399.8z"/>
	</g>
	<g id="_x23_46b5c3ff_1_">
		<path class="st29" d="M528.4,410.5c11.1,4.9,14.6,18,25,23.7c-3.5,8-5.4,16.5-6.5,25.1c-3.4,3.9-8.8,7.5-8.3,13.3
			c1.4,8.4,6.7,15.3,10.7,22.6c6.1,10.2,9.8,21.6,16.3,31.6c3.5,5.6,7.8,11.2,7.8,18.1c0.9,5.8-0.6,14.3,6.2,17.1
			c7.4,2.5,14.7,5.4,22,8.3c-2.1,3.9-4.1,7.7-6.2,11.6c1.7,4.1,3.2,8.2,4.7,12.3c-6-5.2-12.9-9.2-18.2-15.1
			c-8.4-7.4-17.4-14.3-27.5-19.3c1.1-11.8-10.9-17.7-15.7-27.2c-7.9-14.7-10.3-31.6-17.9-46.5c-2,7.3-3.9,14.6-6,21.8
			c-0.4-0.8-1.1-2.4-1.4-3.2c1.5-9.3,2.9-18.6,3-28c0.5-14.7-1.6-29.5,1.1-44c0.2,2.3,0.4,4.6,0.6,7
			C520.1,429.7,522.4,419.2,528.4,410.5z"/>
	</g>
	<g id="_x23_e7f1f3ff_1_">
		<path class="st30" d="M567.2,418.3c5.4-3.7,12-4.8,18.2-6.4c2.1,8.7,7.3,18.5,17.5,18.5c9.5,1.2,14.5-8,17.9-15.2
			c7.2,2.7,13.8,6.9,18.4,13c-3.6,2.7-7.2,5.3-10.9,7.7c-11,6.6-21.6,14.6-27.5,26.3c-6.3,11.3-7.1,25.4-2.6,37.5
			c3.2,10.4,8.7,19.9,15.9,28c11.2,12.5,21.9,25.3,32.2,38.4c3.8,8.7,7,17.7,9.2,27c7.4,33.1,4.6,68.3-9.1,99.5
			c-3.9-11.2-7.9-22.4-10.1-34c-1.8-36.8-15.7-72.8-39.7-100.8c-23.7-28.3-48-60-49.8-98.4c1.1-8.6,3-17.2,6.5-25.1
			C557,428.2,561.3,422.3,567.2,418.3z"/>
	</g>
	<g id="_x23_11294aff_1_">
		<path class="st31" d="M493,474.9c0.4-20.5-1.7-41.4,3.8-61.4c8.2,0.6,16.4,1.7,24.6,3.2c-1.7,5.3-2.9,10.7-3.8,16.2
			c-2.8,14.5-0.6,29.3-1.1,44c-0.2,9.4-1.6,18.7-3,28c-4.4,15.6-10,30.9-17.6,45.2c-7.8-0.2-15.7-0.5-23.5-0.6
			c1.1,9.4-6.9,16.1-8.9,24.8c4.5-4.3,8.6-9,12.5-13.8c2.8,4,5.5,8.1,8.2,12.2c-2.9,1.4-6.2,2.2-8.6,4.5c-2,3.3-2.8,7.1-4.1,10.8
			c19.3-7.7,39.8-14.8,60.9-11.7c5.4,0.1,9.6,3.7,13.8,6.6l-1.8-0.5c-23.2-7.7-48-1.7-69.2,9.1c-31.3,15.3-55.5,41-79.1,65.8
			c-25.6,26.9-50.5,54.5-76.2,81.2c-6.9,7.3-13.8,14.5-20.1,22.3c62.5-13.7,124.4-38,173.4-80.1c14.5-10.7,27.1-23.9,38.5-37.9
			c-1.1,4.7-2.1,9.3-3.3,14c-11.6,33.8-39.3,58.8-69.1,76.8c-50.2,32.2-108.8,47.1-166.6,58.9c-9.2,1-13.9,9.7-19.5,15.8
			c41-6.2,81.7-14.4,121.8-24.9c11.1-2.9,22.1-6.4,32.8-10.5c21.6-3.6,41.7-12.9,61.9-21.1c4,3.1,8.1,6.2,12.1,9.2
			c-0.5,3.9-1,7.7-1.4,11.7c-27.7,14.6-58,23.2-87.8,32.3c-6.9,2-14,3.5-20.5,6.6c-5.1,2.4-7.3,8-10.4,12.3
			c28.5,0.9,57.8,2.4,85.5-5.6c18.5-5.2,36.1-13.5,52.1-24.2c12-8.1,22.7-17.9,33.8-27c-4.9,11.4-11.1,22.2-17.1,33.2
			c9.9-2.3,19.8-5.2,28.9-9.9c27.7-12.7,53.8-30.1,73.7-53.4c11.6-13.2,21-28.2,27.8-44.4c13.7-31.1,16.5-66.4,9.1-99.5
			c0.7-1,2.2-3.1,2.9-4.1c2,8.8,4,17.6,4.8,26.5c3,26.7-4,53-12.6,78c5.8,0.1,11.7,0.6,17.4-0.4c4.3-6.1,5.7-13.6,7.9-20.7
			c0.8,0.4,2.4,1.2,3.2,1.7c-8.8,35-27.4,67.7-53.7,92.5c-17.4,17.2-38,30.3-59.3,42.2c-11.3,5.6-18.3,16.3-26.3,25.5
			c-5.2,6.1-10.6,11.9-16,17.7c10.6,14.2,23.4,26.4,34.5,40.2c6.2,6.9,11.4,14.7,18.6,20.6c18.8,1.3,37.7-0.9,56.4,1.8
			c10.9,1.4,18.3,10.1,23.8,18.8c-78.5,0.7-157,0.4-235.6,0.3c5.1-9.8,13.5-19.2,25.2-20c12.1,3,24.8,4.2,36.7-0.3l1.9-0.2
			c-4.5-5.2-8.9-10.4-12.9-15.9c-12.6-17.2-26.6-33.4-38.7-50.9c-28,4.2-56.4,2.3-84.5-0.6c-20.3,29.7-36,62.8-60.3,89.7
			c-14.4,16-33,29.6-54.7,32.7c-9.5,1.2-19.2,0.7-28.7,0.1c4.7-11.3,14.7-19,22-28.5c8.7,3,17.2-1.8,24.6-6
			c11.9-7,20.6-18,29.6-28.2c11.9-13.6,19.6-30.2,29.1-45.5c8.4-14,18.2-27.3,25.3-42.1c-9.6,1.5-19.6,4.4-25.8,12.4
			c-9.7,12.2-20.5,23.4-30.5,35.3c-22,25.1-44.1,50-68,73.4c-10.2,9.8-21.3,19.1-34.5,24.4c-15.3-0.8-30.8,3.9-45.7-1.6
			c2.3-0.4,4.5-0.8,6.8-1.2c0.9-4.1,0.9-8.9,4.2-11.9c5.1-5.3,10.5-10.6,13.2-17.6c21.8-21.9,44.6-42.7,66.6-64.4
			c11.4-10.5,22-21.8,33.3-32.5c-23.9,4.2-48,6.6-71.9,10.5c10.1-12.6,21.5-24,32.5-35.7c23-23.7,45.8-47.5,68.8-71.1
			c18.2-18.7,36.2-37.6,54.2-56.5c27.7-28.9,54.5-58.7,84-85.9c18.5-17.5,37.6-34.8,51.1-56.6C486.2,519.8,492.5,497.4,493,474.9
			 M470.5,853.2c12.8,17.7,25.6,35.4,39,52.7c2.5,2.7,4.8,6.9,9,6.9c8.9,0.7,17.9,0.2,26.9,0.5c-9.3-10.6-18.6-21.3-28-31.8
			c-11.1-12.4-21.3-25.8-35.1-35.4C478.3,848.5,474.4,850.8,470.5,853.2z"/>
	</g>
	<g id="_x23_9abbd2ff_1_">
		<path class="st32" d="M659.4,432c6.6-6.2,14.1-14.6,24.2-12.7c27,3.1,53.4,9.5,80,14.9c8,1.6,15.8,4.1,23.6,6.8
			c-21.9-4.4-44.1-6.9-66.4-8.6C700.3,431,679.8,433.2,659.4,432z"/>
	</g>
	<g id="_x23_52bac6ff_1_">
		<path class="st33" d="M600.8,462.3c5.9-11.7,16.6-19.7,27.5-26.3c5.8,3.7,11.9,6.9,18.1,9.9c-8.1,9.5-16.3,19.4-20.2,31.5
			c-4,13.5-2.2,28,1.8,41.3c-3.4,1.8-6.6,7.3-10.9,4.1c-7.7-6.3-12.7-15.3-19-23C593.6,487.7,594.5,473.6,600.8,462.3z"/>
	</g>
	<g id="_x23_50bbc6ff_1_">
		<path class="st34" d="M538.5,472.7c-0.5-5.8,4.9-9.4,8.3-13.3c1.8,38.4,26.2,70.1,49.8,98.4c24,28,37.9,64,39.7,100.8
			c0,8.1-0.5,16.1-1.3,24.1c-0.3-0.4-0.9-1.1-1.2-1.4c-11.3-3.2-18.4-12.7-26.6-20.3c0.5-17.7-1.9-35.7-10.2-51.7
			c-3.9-10.5-8.9-20.7-15.1-30c5.3,5.9,12.2,10,18.2,15.1c-1.5-4.1-3.1-8.2-4.7-12.3c2-3.9,4.1-7.7,6.2-11.6
			c-7.3-2.9-14.6-5.8-22-8.3c-6.7-2.8-5.2-11.3-6.2-17.1c0-6.9-4.3-12.6-7.8-18.1c-6.5-10-10.2-21.4-16.3-31.6
			C545.2,488,539.9,481.1,538.5,472.7z"/>
	</g>
	<g id="_x23_3da8bdff_1_">
		<path class="st35" d="M520.7,486.3c7.6,14.9,10,31.8,17.9,46.5c4.7,9.4,16.7,15.4,15.7,27.2c-20.3-7.5-42.7-6.3-63.3-0.7
			c1.6-3,3.2-6.1,4.8-9.1c7.6-14.3,13.2-29.7,17.6-45.2c0.3,0.8,1,2.4,1.4,3.2C516.9,500.9,518.8,493.6,520.7,486.3z"/>
	</g>
	<g id="_x23_6bbec9ff_1_">
		<path class="st36" d="M598.2,499.8c6.2,7.7,11.2,16.7,19,23c4.2,3.2,7.4-2.2,10.9-4.1c4.7,16.3,12.8,31.4,18.4,47.4
			c-10.3-13.2-21.1-26-32.2-38.4C606.9,519.7,601.4,510.1,598.2,499.8z"/>
	</g>
	<g id="_x23_0f2f52ff_1_">
		<path class="st37" d="M472.3,549.5c7.8,0.1,15.7,0.4,23.5,0.6c-1.6,3-3.2,6.1-4.8,9.1c20.6-5.6,43-6.8,63.3,0.7
			c10.1,5,19.1,12,27.5,19.3c6.2,9.3,11.2,19.5,15.1,30c1.3,14.3,2.3,28.9-0.7,43c-5.6,28.3-23.6,52.2-43.4,72.4
			c-17.9,16.5-38.3,30-59.6,41.6c-4.2,2.2-8.4,4.3-12.7,6.4c0.4-3.9,0.9-7.8,1.4-11.7c-4.1-3.1-8.1-6.2-12.1-9.2
			c25.2-12.1,49.5-27,69.7-46.4c15.3-14.9,27.6-33.3,32.6-54.3c2.3-10.3,2.8-21.1,1-31.5c-0.9-4.4-2.4-8.6-4.1-12.8
			c-3.6-7.2-8.3-14.1-15.1-18.6c-2.5-1.8-5-3.6-7.6-5.3c-4.2-2.9-8.4-6.5-13.8-6.6c-21.1-3.1-41.6,4-60.9,11.7
			c1.2-3.6,2.1-7.5,4.1-10.8c2.4-2.3,5.7-3.1,8.6-4.5c-2.7-4.1-5.4-8.2-8.2-12.2c-3.9,4.8-8,9.5-12.5,13.8
			C465.3,565.6,473.4,558.9,472.3,549.5z"/>
	</g>
	<g id="_x23_e6f0f4ff_1_">
		<path class="st38" d="M475.2,591.4c21.1-10.7,46-16.7,69.2-9.1c-7.3,2.4-14,6.4-19.1,12.2c-18.8,2.7-37.1,8.6-53.5,18.3
			c-31.5,19.3-56.5,47-82.1,73.2c-13.9,15.2-29.3,29.1-42.3,45.1c24.1-6.5,47.1-16.5,70.3-25.5c18.9-7.4,36.2-18.4,55.4-25.1
			c-49,42.1-110.8,66.4-173.4,80.1c6.2-7.8,13.2-15,20.1-22.3c25.8-26.8,50.7-54.3,76.2-81.2C419.7,632.4,443.9,606.7,475.2,591.4z"
			/>
	</g>
	<g id="_x23_c0dee8ff_1_">
		<path class="st39" d="M544.4,582.4l1.8,0.5c2.6,1.7,5.1,3.5,7.6,5.3c-4.1,2.4-7.9,5.4-11.3,8.7c-5.7-1.1-11.5-1.8-17.2-2.3
			C530.4,588.8,537,584.8,544.4,582.4z"/>
	</g>
	<g id="_x23_93c4d3ff_1_">
		<path class="st40" d="M542.5,596.9c3.4-3.3,7.2-6.3,11.3-8.7c6.8,4.5,11.5,11.4,15.1,18.6c-3.8,2.2-7.6,4.5-11.5,6.7
			c-2.7-4.6-6-8.9-9.7-12.8C546,599.4,544.2,598.1,542.5,596.9z"/>
	</g>
	<g id="_x23_3fb1c1ff_1_">
		<path class="st41" d="M471.8,612.9c16.3-9.7,34.7-15.6,53.5-18.3c5.8,0.5,11.5,1.2,17.2,2.3c1.8,1.2,3.5,2.5,5.2,3.8
			c1.5,11.6,1.9,23.6-1.8,34.8c-4.8,12.1-11,23.9-20.3,33.2c-7.9,7.9-15.6,17-26.8,20.1c4.3-10.3,7.3-21.1,9.6-32
			c1.1-4.7,2.2-9.3,3.3-14c-11.4,13.9-24,27.1-38.5,37.9c-19.2,6.7-36.5,17.7-55.4,25.1c-23.2,9-46.2,19-70.3,25.5
			c13-16.1,28.4-29.9,42.3-45.1C415.3,659.9,440.2,632.2,471.8,612.9z"/>
	</g>
	<g id="_x23_488ca8ff_1_">
		<path class="st42" d="M547.7,600.7c3.7,3.9,7,8.2,9.7,12.8c1.8,7,3,14.1,4.5,21.2c5-3.9,10-8.5,11.1-15.1
			c1.7,10.4,1.3,21.2-1,31.5c-10.4-1.6-18.5-8.7-26-15.5C549.6,624.3,549.2,612.3,547.7,600.7z"/>
	</g>
	<g id="_x23_67a2b6ff_1_">
		<path class="st43" d="M568.8,606.8c1.7,4.1,3.2,8.4,4.1,12.8c-1.1,6.6-6.1,11.2-11.1,15.1c-1.5-7.1-2.7-14.2-4.5-21.2
			C561.2,611.3,565,609,568.8,606.8z"/>
	</g>
	<g id="_x23_2e7796ff_1_">
		<path class="st44" d="M596.9,609.3c8.3,15.9,10.7,33.9,10.2,51.7c-0.7,27.1-9.3,53.5-22.2,77.2c-5-5.7-9.9-12.1-17.1-15
			c-5-2-10.3,0-15.1,1.6c19.8-20.2,37.9-44.1,43.4-72.4C599.2,638.2,598.2,623.6,596.9,609.3z"/>
	</g>
	<g id="_x23_357598ff_1_">
		<path class="st45" d="M545.9,635.5c7.5,6.8,15.6,13.9,26,15.5c-4.9,21-17.3,39.4-32.6,54.3c-20.2,19.4-44.5,34.4-69.7,46.4
			c-20.2,8.1-40.3,17.5-61.9,21.1c25.5-14.3,51.7-29.1,70.4-52.1c8.1-9.8,14.8-20.6,20.6-31.9c11.2-3.1,18.9-12.2,26.8-20.1
			C534.9,659.5,541.2,647.7,545.9,635.5z"/>
	</g>
	<g id="_x23_e0eaefff_1_">
		<path class="st46" d="M508.3,656.8c-2.3,10.9-5.3,21.7-9.6,32c-5.8,11.3-12.5,22.1-20.6,31.9c-18.7,23.1-44.9,37.8-70.4,52.1
			c-10.7,4.1-21.7,7.6-32.8,10.5c-40.1,10.6-80.8,18.7-121.8,24.9c5.6-6.2,10.3-14.8,19.5-15.8c57.7-11.8,116.4-26.7,166.6-58.9
			C469,715.6,496.8,690.6,508.3,656.8z"/>
	</g>
	<g id="_x23_d0eaecff_1_">
		<path class="st47" d="M636.3,658.5c2.2,11.6,6.3,22.8,10.1,34c-6.8,16.2-16.3,31.2-27.8,44.4c4.2-18.5,15.2-35,16.3-54.3
			C635.8,674.6,636.3,666.6,636.3,658.5z"/>
	</g>
	<g id="_x23_49b5c2ff_1_">
		<path class="st48" d="M607.1,661c8.3,7.6,15.3,17.1,26.6,20.3c0.3,0.4,0.9,1.1,1.2,1.4c-1.1,19.3-12.2,35.8-16.3,54.3
			c-19.9,23.3-46,40.8-73.7,53.4c14.7-16.3,29.7-32.6,40-52.2C597.8,714.5,606.4,688.1,607.1,661z"/>
	</g>
	<g id="_x23_2d6a8eff_1_">
		<path class="st49" d="M552.7,724.7c4.8-1.5,10.1-3.6,15.1-1.6c7.2,2.9,12.1,9.3,17.1,15c-10.3,19.6-25.2,35.9-40,52.2
			c-9.1,4.7-19,7.6-28.9,9.9c5.9-10.9,12.1-21.7,17.1-33.2c-11.2,9.2-21.8,19-33.8,27c-2.2-4.9-4.2-9.9-6.2-14.9
			c-0.1-4.3-0.1-8.6,0-12.9C514.4,754.7,534.8,741.2,552.7,724.7z"/>
	</g>
	<g id="_x23_335b84ff_1_">
		<path class="st50" d="M480.4,772.6c4.2-2.1,8.5-4.1,12.7-6.4c-0.1,4.3-0.1,8.6,0,12.9c2,5,4,10,6.2,14.9
			c-16,10.7-33.6,19-52.1,24.2c-27.7,8-57,6.4-85.5,5.6c3-4.4,5.3-9.9,10.4-12.3c6.5-3.1,13.6-4.6,20.5-6.6
			C422.4,795.8,452.7,787.3,480.4,772.6z"/>
	</g>
	<g id="_x23_305f8cff_1_">
		<path class="st51" d="M310.2,830.3c6.2-8,16.2-10.9,25.8-12.4c-7.1,14.8-16.9,28.1-25.3,42.1c-9.5,15.3-17.1,31.8-29.1,45.5
			c-9,10.2-17.7,21.2-29.6,28.2c-7.4,4.2-15.9,9-24.6,6c8.8-11.8,17.4-23.8,26-35.7c8.9-12.7,18.8-24.7,26.2-38.4
			C289.6,853.7,300.5,842.5,310.2,830.3z"/>
	</g>
	<g id="_x23_071029ff_1_">
		<path class="st52" d="M446.7,913.7c12.2-1.1,24.5-0.7,36.7-0.3C471.5,917.9,458.8,916.7,446.7,913.7z"/>
	</g>
</g>
</svg>
