<?xml version="1.0" encoding="utf-8"?>
<!-- Generator: Adobe Illustrator 24.1.2, SVG Export Plug-In . SVG Version: 6.00 Build 0)  -->
<svg version="1.1" id="Layer_1" xmlns="http://www.w3.org/2000/svg" xmlns:xlink="http://www.w3.org/1999/xlink" x="0px" y="0px"
	 viewBox="0 0 1024 1024" style="enable-background:new 0 0 1024 1024;" xml:space="preserve">
<style type="text/css">
	.st0{fill:#777876;}
	.st1{fill:#133051;}
	.st2{fill:#DFEFF1;}
	.st3{fill:#4AAEBE;}
	.st4{fill:#0B1A34;}
	.st5{fill:#419CB0;}
	.st6{fill:#E1F1F2;}
	.st7{fill:#4DB0BE;}
	.st8{fill:#51B6C4;}
	.st9{fill:#113054;}
	.st10{fill:#39809E;}
	.st11{fill:#3E9EB0;}
	.st12{fill:#E1EFF2;}
	.st13{fill:#79C5CC;}
	.st14{fill:#44B0C1;}
	.st15{fill:#4DA5B7;}
	.st16{fill:#50B1BD;}
	.st17{fill:#3C84A0;}
	.st18{fill:#3B9FB6;}
	.st19{fill:#3383A2;}
	.st20{fill:#306F90;}
	.st21{fill:#2E7997;}
	.st22{fill:#327C99;}
	.st23{fill:#2B6283;}
	.st24{fill:#3C8DA5;}
	.st25{fill:#41ADC0;}
	.st26{fill:#D8EEEE;}
	.st27{fill:#4ABBC7;}
	.st28{fill:#123255;}
	.st29{fill:#46B5C3;}
	.st30{fill:#E7F1F3;}
	.st31{fill:#11294A;}
	.st32{fill:#9ABBD2;}
	.st33{fill:#52BAC6;}
	.st34{fill:#50BBC6;}
	.st35{fill:#3DA8BD;}
	.st36{fill:#6BBEC9;}
	.st37{fill:#0F2F52;}
	.st38{fill:#E6F0F4;}
	.st39{fill:#C0DEE8;}
	.st40{fill:#93C4D3;}
	.st41{fill:#3FB1C1;}
	.st42{fill:#488CA8;}
	.st43{fill:#67A2B6;}
	.st44{fill:#2E7796;}
	.st45{fill:#357598;}
	.st46{fill:#E0EAEF;}
	.st47{fill:#D0EAEC;}
	.st48{fill:#49B5C2;}
	.st49{fill:#2D6A8E;}
	.st50{fill:#335B84;}
	.st51{fill:#305F8C;}
	.st52{fill:#071029;}
	.st53{fill:#0F2646;}
</style>
<g>
	<g>
		<g id="_x23_133051ff">
			<path class="st1" d="M489.9,103.5c7.4-17,17-33.6,31.4-45.7c1.8,18.7,7.7,37.4,18.9,52.6c14.4,20.8,36.8,34.8,49.6,56.9
				c5.5-12.2,13-23.6,23.4-32.2c11.2-9.7,24.9-15.9,38.8-20.5c-2.6,8.6-5.1,17.2-6.2,26.1c-0.4-2.5-0.9-5-1.4-7.5
				c-1.9,10.7-3.2,22,1.9,32.1c2.5,16.5,8.4,32.5,9,49.3c13.4-12.8,31.1-19.4,48.6-24.3c-7.4,13.1-12,28-11.6,43.2
				c0.4,14.7-0.6,29.6-5.6,43.5c-7.2,20.7-24.3,37.4-44.6,45.3c3.7-3.7,7.7-7.3,12.3-10c7.1-4.3,13.1-10.4,17.6-17.3
				c2.9-3.8,1.7-8.7,1.5-13c3.6-4.3,7.7-8.6,9.1-14.3c1.8-7.5,3.8-15.2,2.9-22.9c-0.7-5-6.4-6.3-10.1-8.4c0.2-5.6,0.5-11.1,0.9-16.7
				c-1.9,1.5-3.8,3-5.6,4.6c-7.4,5.3-13.2,12.7-16.2,21.4c-3.9-0.7-7.8-1.5-11.8-2.2c-1.2,7.5-1.4,15.5-5.3,22.2
				c-1.5,2.9-5.2,2.5-7.9,3.2c7.5-16.5,11.5-35.1,8.9-53.3c-3.1-24.2-11.6-48-8.3-72.7c-0.7,0.6-2.2,1.9-3,2.5
				c-12.9,10.1-22.2,25.1-24.1,41.5c-1,8.8,1.4,17.5,3,26.1c1.9,9.8,2.1,19.9,1.6,29.9c-4.3-1.1-8.6-2-12.9-3
				c-1.4,15.2-5.3,29.9-7.2,45.1c-0.1,4-4.3,5.3-7.1,7.1c0.6-1.6,0.4-3.3-0.3-4.9c1.7-3.7,3.9-7.4,4.9-11.4
				c7-23.9,9.1-49.9,2.2-74.1c-4.8-16.1-13.7-30.9-25-43.2c-9.8-11.3-21.8-20.5-31-32.3c-7.5-9.4-14.2-19.6-18.3-31
				c-0.2,0.6-0.7,1.7-0.9,2.3c-8.9,13.2-14,28.7-14.1,44.7c-0.9,19,3.9,38.2,14,54.4c5.1,8.7,12,16,18.8,23.4
				c-3.5,2.8-6.9,5.5-10.5,8.3c1.3,3.1,2.5,6.2,3.9,9.3c-11.7-10.4-25.8-18.2-41.1-21.7c-32.2-8.4-66.4,1.8-98.2-9.1
				c-2-0.6-4.1-1.3-6.1-1.9c4.6,15.8,12.8,30.9,24.6,42.5c7,6.2,14.7,11.5,22.7,16.4c-5,1.5-10,3.1-14.9,4.7
				c5.4,6.2,12.9,9.5,19.9,13.4l-1.5,0.6c-19.5-5.6-36.3-18.4-48.8-34.1c-17.3-21-23.6-48.3-27.1-74.8c13.7,9.3,29,16.6,45.4,19.5
				c14.8,3.2,30.1,2.7,45.2,2.1c-10.1-6.4-19.9-14.2-25.6-24.9c-10.8-18.9-11.5-41.9-6.4-62.7c3.9,4.7,7.4,9.7,11.7,14
				c12,12.2,27.7,19.8,39.9,31.7c10.9,10.7,7.9,27.9,16.9,39.8c3,5.3,9.1,7.5,14.5,9.5c-3.8-8.4-7.8-16.6-10.1-25.6
				C478.2,153,480.2,126.6,489.9,103.5z"/>
		</g>
		<g id="_x23_dfeff1ff">
			<path class="st2" d="M512.6,95.3c4.2,11.4,10.8,21.6,18.3,31c9.2,11.8,21.2,21,31,32.3c11.4,12.4,20.2,27.1,25,43.2
				c6.9,24.2,4.8,50.2-2.2,74.1c-1-18.8,1.7-37.8-2.7-56.3c-2.4-10.8-6.4-21.3-11.9-31c-8-14.2-20.7-24.6-31.3-36.7
				c-6.8-7.4-13.2-15.3-17.8-24.3c-4.8-9.4-6.4-20-9.4-30.1C511.9,97,512.4,95.8,512.6,95.3z"/>
		</g>
		<g id="_x23_4aaebeff">
			<path class="st3" d="M497.6,142.3c0.1-15.9,5.2-31.5,14.1-44.7c3,10.1,4.5,20.7,9.4,30.1c4.6,9,10.9,16.9,17.8,24.3
				c-5.9-0.2-11.2,2.6-16.1,5.5c-0.9-1.2-1.9-2.5-2.8-3.7c4.3,11.4,10.4,22.1,16.1,32.9c-5.9,0.4-13.5,2.7-17.8-2.7
				c-11.2-13.3-10.4-31.7-16.1-47.3C500.6,138.5,499.1,140.4,497.6,142.3z"/>
		</g>
		<g id="_x23_0b1a34ff">
			<path class="st4" d="M644.2,133.1c0.5,2.5,1,5,1.4,7.5c-0.5,8.2-0.3,16.4,0.4,24.6C641,155.2,642.3,143.8,644.2,133.1z"/>
		</g>
		<g id="_x23_419cb0ff">
			<path class="st5" d="M502.1,136.6c5.8,15.6,4.9,34,16.1,47.3c4.3,5.4,11.9,3.1,17.8,2.7c5.9,11.1,12.8,21.8,17.3,33.7
				c3.7,9.5,5.8,19.5,7.3,29.6c-7.2-19-17.8-36.9-32.4-51.1c-4.3-5-11-3.2-16.6-2.3c-10.1-16.2-14.9-35.3-14-54.4
				C499.1,140.4,500.6,138.5,502.1,136.6z"/>
		</g>
		<g id="_x23_e1f1f2ff">
			<path class="st6" d="M626.8,145.5c0.7-0.6,2.2-1.9,3-2.5c-3.3,24.7,5.2,48.5,8.3,72.7c2.6,18.1-1.3,36.7-8.9,53.3
				c-2.4,4.2-5.3,8-8.1,12c2.8-11.9,9.4-22.8,9.8-35.2c1.3-12.4,0.6-24.9-1.8-37.1c-2.5-12.1-6.3-24.1-6.2-36.6
				C622.9,163,625.3,154.3,626.8,145.5z"/>
		</g>
		<g id="_x23_4db0beff">
			<path class="st7" d="M602.7,186.9c1.8-16.4,11.2-31.4,24.1-41.5c-1.4,8.8-3.8,17.5-3.9,26.5c-0.1,12.5,3.6,24.5,6.2,36.6
				c-3.8,4.3-7.4,8.9-10.1,13.9c-3.1,6.6-3.1,14.1-3.7,21.2c5.2-0.7,10.4-1.3,15.5-2c0,1,0,3,0,4c-0.3,12.4-7,23.3-9.8,35.2
				c-3.6,5.3-8.2,9.8-12.7,14.3c-3.8-1.7-7.5-3.4-11.3-5.1c5.5-15.2,8.8-31.1,10.2-47.1c0.6-10,0.3-20-1.6-29.9
				C604.1,204.4,601.7,195.8,602.7,186.9z"/>
		</g>
		<g id="_x23_51b6c4ff">
			<path class="st8" d="M522.7,157.5c4.9-2.9,10.2-5.8,16.1-5.5c10.6,12.1,23.4,22.5,31.3,36.7c5.4,9.7,9.5,20.1,11.9,31
				c-1.6,6.2-4.3,12.1-8.2,17.3c-3.7-12.9-10.6-24.6-17.6-36C546.8,185,532.8,172.8,522.7,157.5z"/>
		</g>
		<g id="_x23_113054ff">
			<path class="st9" d="M519.9,153.8c0.9,1.2,1.9,2.4,2.8,3.7c10,15.3,24.1,27.6,33.5,43.3c7,11.4,13.9,23.1,17.6,36
				c4.6,16.5,4,33.6,5.9,50.4c0.7,1.6,0.9,3.2,0.3,4.9c2.8-1.8,7-3.1,7.1-7.1c1.8-15.1,5.8-29.9,7.2-45.1c4.3,1,8.6,1.9,12.9,3
				c-1.4,16.1-4.7,32-10.2,47.1c3.8,1.7,7.5,3.4,11.3,5.1c4.5-4.5,9.1-9,12.7-14.3c2.8-3.9,5.6-7.8,8.1-12c2.7-0.7,6.4-0.3,7.9-3.2
				c3.9-6.7,4.2-14.7,5.3-22.2c3.9,0.7,7.8,1.4,11.8,2.2c-0.7,2.7-1.3,5.4-1.9,8.2c-4,19.7-15.9,36.6-30.1,50.4
				c2.8,1.3,5.5,4.3,8.9,3.5c6.2-1.3,11.8-4.6,16.8-8.4c12.7-8.3,21-22,24.8-36.5c2.2-8.6,2.1-17.6,2.5-26.4
				c3.7,2.1,9.5,3.4,10.1,8.4c0.8,7.7-1.1,15.5-2.9,22.9c-1.4,5.6-5.5,9.9-9.1,14.3c0.1,4.4,1.3,9.3-1.5,13
				c-4.6,6.9-10.5,13-17.6,17.3c-4.6,2.7-8.5,6.3-12.3,10c-0.3,0.2-0.9,0.7-1.3,0.9c2.5,3.8,4.7,7.8,6.8,11.9
				c32.7,5,65.3,11.5,96.5,22.8c26.5,9.5,53.2,21,74,40.5c-9.5-1.6-18.6-5-27.9-7.5c-29.6-7.4-59.9-12.4-90.4-14.7
				c0.9-0.6,2.9-1.7,3.8-2.3c-14.7,0.4-29.4-0.7-44,0.6c-5.9,1-13.4,0.9-16.7,6.7c-8.8,4.7-17.7,11.7-19.5,22.2
				c-3,17.5,5.9,33.9,12.7,49.4c14.2,31.9,18.9,68.4,10.6,102.5c-0.6-0.3-1.9-1-2.5-1.3c-1.7,5.6-2.8,11.7-6.3,16.6
				c-4.6,0.9-9.4,0.4-14,0.3c6.9-20.1,12.6-41.2,10.1-62.7c-0.6-7.2-2.3-14.3-3.9-21.3c-0.6,0.8-1.8,2.5-2.3,3.3
				c-1.8-7.4-4.3-14.7-7.4-21.7c-4.5-12.9-11-25-14.8-38.1c-3.2-10.7-4.7-22.4-1.4-33.2c3.1-9.7,9.7-17.7,16.2-25.3
				c-5-2.5-9.9-5-14.5-8c3-2,5.9-4.1,8.8-6.2c4.7-3.7,9.9-6.8,14.2-11c1-0.9,0.8-2.4,1.1-3.6c-7.5-15.8-20.7-29.5-37.6-34.8
				c-15.6-4.6-33.3-2.5-46.9,6.7c-11.7,8-21.2,19.7-25.5,33.4c-6.5-1.2-13.1-2.1-19.7-2.6c1.2-4.4,3-8.5,4.8-12.7
				c-15.5,3.5-29.9,10.9-45.7,12.8c-21.1,3.6-43-1.6-61.2-12.4c-13.6-9.1-24.8-21.6-32.4-36c0.3-2,0.6-4,0.9-6
				c11.3,0.9,22.7,2.2,34.1,1.3c8.2-0.6,16.2-2.7,24.1-4.8c-0.2-0.7-0.5-2.2-0.7-2.9c1.9-0.8,3.8-1.7,5.7-2.6l1.5-0.6
				c-7-3.9-14.6-7.1-19.9-13.4c4.9-1.6,9.9-3.3,14.9-4.7c12.9,7.7,27.9,11,42.8,11.4c19.4,0.3,38.5,5.2,55.6,14.5
				c-6.3-11.4-15.1-21.9-27.2-27.3c-3.1-1.4-6.2-2.8-9.4-4c-15.4-6.6-32.2-8.9-48-14.5c-4-1.3-7.9-2.7-11.9-3.8
				c-0.6-0.7-1.7-2.1-2.3-2.8c16.7,4.1,33.9,4.3,50.8,7c20.9,3.6,41.6,12.8,55.9,28.9c5.3,5.5,8.5,12.6,13.5,18.3
				c2.7,0,5.3-0.5,8-0.9c-0.3-1-0.9-3-1.2-4c-5.1-18.5-15.6-35-28.5-49c-1.4-3-2.7-6.2-3.9-9.3c3.5-2.7,7-5.5,10.5-8.3
				c5.6,6,11.3,12,16.6,18.4c6,7.3,10.4,15.7,15.1,23.8c-0.4-4.1-0.7-8.2-1.4-12.3c-1.5-10.1-3.6-20.1-7.3-29.6
				c-4.5-11.9-11.4-22.6-17.3-33.7C530.3,175.9,524.2,165.2,519.9,153.8 M441.9,297.7c-15.3,4.9-31,9.6-47.3,9.4
				c5.7,6.8,12.5,12.4,20.2,16.6c11.5,5.5,24.3,8.4,37.1,6.7c14.2-1.2,27.3-7.4,40.9-11c8.1-2.3,16.9-1.3,24.8-4.5c1.5-2,3-4,4.5-6
				c-8.2-4.4-16.1-9.3-24.7-12.7c-3.6-1.3-7.5-2.9-11.4-1.8C471.4,291,456,293,441.9,297.7 M630.5,360.6c16.4,1,32.9-0.7,49.3,0.4
				c17.9,1.4,35.8,3.3,53.4,6.9c-6.2-2.2-12.5-4.2-18.9-5.5c-21.3-4.4-42.6-9.5-64.3-12C641.8,348.9,635.8,355.6,630.5,360.6z"/>
		</g>
		<g id="_x23_39809eff">
			<path class="st10" d="M511.6,196.6c5.6-1,12.3-2.7,16.6,2.3c14.6,14.2,25.2,32.1,32.4,51.1c0.7,4.1,1,8.2,1.4,12.3
				c-4.7-8.1-9.1-16.5-15.1-23.8c-5.2-6.4-11-12.3-16.6-18.4C523.6,212.7,516.7,205.3,511.6,196.6z"/>
		</g>
		<g id="_x23_3e9eb0ff">
			<path class="st11" d="M378.6,204.9c2,0.6,4,1.3,6.1,1.9c8.6,7.1,19.4,10.1,29.7,13.6c-5.8-0.2-11.6-0.3-17.3-0.9
				c-1,3.8-2.4,7.7-2.4,11.7c3.1,4.9,8,8.3,12.6,11.7c-1.4,1.5-2.7,2.9-4,4.4C391.4,235.8,383.2,220.7,378.6,204.9z"/>
		</g>
		<g id="_x23_e1eff2ff">
			<path class="st12" d="M414.4,220.5c-10.3-3.5-21.2-6.6-29.7-13.6c31.8,10.9,66,0.7,98.2,9.1c15.3,3.5,29.4,11.3,41.1,21.7
				c12.9,14,23.4,30.5,28.5,49c-0.4,0.3-1.1,0.8-1.4,1.1c-7.2-21.5-23.9-38.8-43.3-50.1c-15.3-9-33-12.9-50.6-13.7
				C442.8,223.3,428.5,222.3,414.4,220.5z"/>
		</g>
		<g id="_x23_79c5ccff">
			<path class="st13" d="M629.1,208.6c2.5,12.2,3.1,24.7,1.8,37.1c0-1,0-3,0-4c-5.2,0.7-10.4,1.3-15.5,2c0.5-7.1,0.6-14.6,3.7-21.2
				C621.7,217.4,625.2,212.8,629.1,208.6z"/>
		</g>
		<g id="_x23_44b0c1ff">
			<path class="st14" d="M397,219.6c5.8,0.5,11.6,0.7,17.3,0.9c14.2,1.8,28.4,2.8,42.7,3.5c17.6,0.8,35.3,4.7,50.6,13.7
				c19.4,11.2,36.1,28.5,43.3,50.1c0.3-0.3,1.1-0.8,1.4-1.1c0.3,1,0.9,3,1.2,4c-2.7,0.4-5.3,0.9-8,0.9c-5-5.7-8.2-12.8-13.5-18.3
				c-14.3-16.1-34.9-25.3-55.9-28.9c-16.9-2.7-34.2-2.9-50.8-7c0.6,0.7,1.7,2.1,2.3,2.8c-6.2-0.7-12,1.6-16.8,5.3
				c-1.3-0.8-2.5-1.6-3.7-2.4c-4.6-3.4-9.6-6.8-12.6-11.7C394.6,227.3,396,223.4,397,219.6z"/>
		</g>
		<g id="_x23_4da5b7ff">
			<path class="st15" d="M573.9,236.8c3.8-5.1,6.6-11,8.2-17.3c4.4,18.5,1.6,37.5,2.7,56.3c-1.1,4-3.2,7.6-4.9,11.4
				C577.9,270.4,578.4,253.3,573.9,236.8z"/>
		</g>
		<g id="_x23_50b1bdff">
			<path class="st16" d="M670.4,224.3c1.9-1.5,3.7-3.1,5.6-4.6c-0.3,5.6-0.7,11.1-0.9,16.7c-0.4,8.8-0.3,17.8-2.5,26.4
				c-3.8,14.5-12.1,28.2-24.8,36.5c6.4-12.4,14-24.8,14.4-39.1C662.6,247.7,667.6,236.2,670.4,224.3z"/>
		</g>
		<g id="_x23_3c84a0ff">
			<path class="st17" d="M654.2,245.7c3-8.7,8.8-16.1,16.2-21.4c-2.8,12-7.8,23.4-8.1,35.9c-3.6-1.7-6.9-3.9-10-6.3
				C652.9,251.1,653.5,248.4,654.2,245.7z"/>
		</g>
		<g id="_x23_3b9fb6ff">
			<path class="st18" d="M411,245.4c4.8-3.7,10.6-6,16.8-5.3c4,1.1,8,2.5,11.9,3.8c15.8,5.5,32.5,7.9,48,14.5
				C461.7,262,433.7,259.3,411,245.4z"/>
		</g>
		<g id="_x23_3383a2ff">
			<path class="st19" d="M403.2,247.4c1.3-1.5,2.7-2.9,4-4.4c1.2,0.8,2.4,1.6,3.7,2.4c22.8,13.9,50.7,16.6,76.7,13
				c3.2,1.2,6.3,2.5,9.4,4c-11.3,0.7-23.4,1.2-32.6,8.5c1.4,1.4,2.8,2.9,4.2,4.3c-14.9-0.4-29.9-3.7-42.8-11.4
				C417.9,258.9,410.2,253.6,403.2,247.4z"/>
		</g>
		<g id="_x23_306f90ff">
			<path class="st20" d="M622.2,304.2c14.2-13.8,26.1-30.7,30.1-50.4c3.1,2.4,6.4,4.6,10,6.3c-0.4,14.4-8,26.8-14.4,39.1
				c-5.1,3.7-10.6,7.1-16.8,8.4C627.7,308.5,625,305.5,622.2,304.2z"/>
		</g>
		<g id="_x23_2e7997ff">
			<path class="st21" d="M464.4,270.9c9.2-7.4,21.3-7.9,32.6-8.5c12.1,5.4,20.9,16,27.2,27.3c-17-9.3-36.2-14.2-55.6-14.5
				C467.2,273.8,465.8,272.4,464.4,270.9z"/>
		</g>
		<g id="_x23_327c99ff">
			<path class="st22" d="M441.9,297.7c14.1-4.8,29.5-6.7,44.2-3.3c-4.8,1.1-9.6,2.3-14.4,3.3c5.4,0.4,10.7,1.7,15.8,3.6
				c-13.5-0.3-27.2-1.2-40.2,2.7C445.5,301.9,443.7,299.8,441.9,297.7z"/>
		</g>
		<g id="_x23_2b6283ff">
			<path class="st23" d="M486.1,294.4c3.9-1.1,7.8,0.5,11.4,1.8c8.6,3.4,16.6,8.3,24.7,12.7c-1.5,2-3,4-4.5,6
				c-9.2-6.3-19.7-10-30.2-13.6c-5.1-1.8-10.4-3.2-15.8-3.6C476.5,296.7,481.3,295.5,486.1,294.4z"/>
		</g>
		<g id="_x23_3c8da5ff">
			<path class="st24" d="M394.6,307.1c16.3,0.2,31.9-4.5,47.3-9.4c1.8,2.1,3.6,4.2,5.4,6.3c-12.6,3.2-25.3,6.3-38.3,8
				c3.3,1.9,6.5,3.8,9.9,5.7c-1.3,2-2.7,4-4,6C407.1,319.6,400.3,313.9,394.6,307.1z"/>
		</g>
		<g id="_x23_41adc0ff">
			<path class="st25" d="M447.3,304c13.1-3.8,26.8-3,40.2-2.7c10.4,3.6,21,7.3,30.2,13.6c-7.9,3.2-16.7,2.2-24.8,4.5
				c-13.7,3.6-26.7,9.8-40.9,11c-12.7,1.6-25.6-1.2-37.1-6.7c1.3-2,2.6-4,4-6c-3.3-1.9-6.6-3.8-9.9-5.7
				C421.9,310.3,434.6,307.2,447.3,304z"/>
		</g>
		<g id="_x23_d8eeeeff">
			<path class="st26" d="M545,314.9c13.6-9.2,31.3-11.3,46.9-6.7c16.9,5.3,30.1,19,37.6,34.8c-9.2-4.5-14.8-13.6-23.4-18.9
				c-14.5-9.8-33.5-11.4-50-6.3c-13.2,4.2-23.5,14.3-31,25.6c-4.8,7-6.6,15.4-8.2,23.6c-0.2-1.9-0.4-3.7-0.5-5.6
				c0.7-4.4,1.7-8.8,3.1-13C523.8,334.7,533.3,323,545,314.9z"/>
		</g>
		<g id="_x23_4abbc7ff">
			<path class="st27" d="M556.1,317.8c16.5-5.1,35.5-3.5,50,6.3c8.6,5.3,14.2,14.4,23.4,18.9c-0.3,1.2-0.1,2.7-1.1,3.6
				c-4.3,4.2-9.5,7.3-14.2,11c-3.7-5-9-8.3-14.8-10.5c-1.3-3.5-2.2-7.3-4.4-10.4c-4.2-4.5-11.9-5.5-17-2c-3.1,2.6-4.9,6.3-7.1,9.7
				c-5,1.3-10.3,2.2-14.6,5.2c-4.7,3.2-8.2,8-11.1,12.8c-8.4-4.6-11.2-15.1-20.1-19.1C532.7,332.1,542.9,322,556.1,317.8z"/>
		</g>
		<g id="_x23_123255ff">
			<path class="st28" d="M578.1,334.7c5.1-3.5,12.8-2.5,17,2c2.2,3.1,3.1,6.9,4.4,10.4c-2.7,5.8-6.8,13.2-14.4,12.2
				c-8.2,0-12.4-7.9-14.1-14.9C573.2,341.1,575,337.3,578.1,334.7z"/>
		</g>
		<g id="_x23_46b5c3ff">
			<path class="st29" d="M525.1,343.4c8.9,4,11.7,14.4,20.1,19.1c-2.8,6.4-4.4,13.3-5.3,20.2c-2.7,3.1-7.1,6-6.7,10.7
				c1.1,6.7,5.4,12.3,8.6,18.2c4.9,8.2,7.9,17.4,13.1,25.4c2.8,4.5,6.3,9,6.3,14.6c0.7,4.7-0.4,11.5,5,13.8c5.9,2,11.8,4.3,17.6,6.7
				c-1.6,3.1-3.3,6.2-4.9,9.3c1.3,3.3,2.6,6.6,3.8,9.9c-4.8-4.1-10.4-7.4-14.6-12.2c-6.8-5.9-14-11.5-22.1-15.5
				c0.9-9.5-8.8-14.3-12.6-21.8c-6.3-11.8-8.3-25.4-14.4-37.4c-1.6,5.8-3.1,11.7-4.8,17.5c-0.3-0.6-0.8-1.9-1.1-2.6
				c1.2-7.5,2.3-15,2.4-22.5c0.4-11.8-1.3-23.7,0.9-35.3c0.1,1.9,0.3,3.7,0.5,5.6C518.5,358.8,520.3,350.4,525.1,343.4z"/>
		</g>
		<g id="_x23_e7f1f3ff">
			<path class="st30" d="M556.4,349.6c4.3-3,9.6-3.9,14.6-5.2c1.7,7,5.9,14.9,14.1,14.9c7.6,0.9,11.7-6.4,14.4-12.2
				c5.8,2.1,11.1,5.5,14.8,10.5c-2.9,2.1-5.8,4.2-8.8,6.2c-8.8,5.3-17.4,11.8-22.1,21.2c-5.1,9.1-5.7,20.4-2.1,30.1
				c2.6,8.3,7,16,12.8,22.5c9,10,17.6,20.3,25.9,30.9c3,7,5.6,14.2,7.4,21.7c6,26.6,3.7,54.9-7.3,79.9c-3.1-9-6.4-18-8.2-27.4
				c-1.4-29.6-12.6-58.5-31.9-81c-19-22.7-38.6-48.2-40.1-79.1c0.9-6.9,2.4-13.8,5.3-20.2C548.2,357.6,551.6,352.9,556.4,349.6z"/>
		</g>
		<g id="_x23_11294aff">
			<path class="st31" d="M496.7,395.1c0.3-16.5-1.4-33.3,3.1-49.4c6.6,0.5,13.2,1.3,19.7,2.6c-1.3,4.2-2.4,8.6-3.1,13
				c-2.2,11.7-0.5,23.6-0.9,35.3c-0.1,7.6-1.3,15.1-2.4,22.5c-3.6,12.5-8,24.9-14.1,36.4c-6.3-0.2-12.6-0.4-18.9-0.5
				c0.9,7.6-5.6,12.9-7.1,19.9c3.6-3.4,6.9-7.2,10.1-11.1c2.2,3.2,4.4,6.5,6.6,9.8c-2.3,1.1-5,1.8-6.9,3.6c-1.6,2.7-2.3,5.7-3.3,8.7
				c15.5-6.2,32-11.9,48.9-9.4c4.3,0.1,7.7,3,11.1,5.3l-1.4-0.4c-18.6-6.2-38.6-1.3-55.6,7.3c-25.1,12.3-44.6,32.9-63.6,52.9
				c-20.6,21.6-40.6,43.8-61.3,65.3c-5.5,5.8-11.1,11.6-16.1,17.9c50.3-11,100-30.5,139.4-64.4c11.7-8.6,21.8-19.2,30.9-30.4
				c-0.9,3.7-1.7,7.5-2.6,11.3c-9.3,27.2-31.6,47.2-55.6,61.7c-40.3,25.9-87.5,37.8-133.9,47.3c-7.4,0.8-11.2,7.8-15.7,12.7
				c32.9-5,65.7-11.5,97.9-20c8.9-2.4,17.7-5.2,26.4-8.4c17.4-2.9,33.5-10.4,49.8-16.9c3.2,2.5,6.5,4.9,9.7,7.4
				c-0.4,3.1-0.8,6.2-1.1,9.4c-22.3,11.8-46.6,18.6-70.6,26c-5.5,1.6-11.2,2.8-16.4,5.3c-4.1,1.9-5.9,6.4-8.3,9.9
				c22.9,0.7,46.4,2,68.7-4.5c14.9-4.2,29-10.8,41.9-19.4c9.6-6.5,18.2-14.4,27.2-21.7c-4,9.2-9,17.9-13.7,26.7
				c8-1.8,15.9-4.2,23.2-8c22.3-10.2,43.2-24.2,59.2-42.9c9.3-10.6,16.9-22.7,22.4-35.7c11-25,13.3-53.4,7.3-79.9
				c0.6-0.8,1.7-2.5,2.3-3.3c1.6,7,3.2,14.1,3.9,21.3c2.4,21.5-3.2,42.6-10.1,62.7c4.7,0.1,9.4,0.5,14-0.3c3.5-4.9,4.6-11,6.3-16.6
				c0.6,0.3,1.9,1,2.5,1.3c-7.1,28.1-22,54.4-43.2,74.3c-14,13.8-30.6,24.4-47.6,33.9c-9.1,4.5-14.7,13.1-21.2,20.5
				c-4.1,4.9-8.5,9.6-12.9,14.3c8.5,11.4,18.8,21.3,27.7,32.3c5,5.5,9.2,11.8,15,16.6c15.1,1.1,30.3-0.7,45.3,1.4
				c8.7,1.2,14.7,8.1,19.1,15.1c-63.1,0.6-126.2,0.3-189.3,0.2c4.1-7.9,10.8-15.4,20.3-16.1c9.7,2.4,19.9,3.4,29.5-0.2l1.5-0.1
				c-3.6-4.1-7.1-8.4-10.4-12.8c-10.1-13.9-21.4-26.8-31.1-40.9c-22.5,3.4-45.4,1.8-67.9-0.5c-16.3,23.9-28.9,50.5-48.5,72.1
				c-11.5,12.9-26.5,23.8-44,26.3c-7.7,0.9-15.4,0.6-23.1,0.1c3.8-9.1,11.8-15.3,17.7-22.9c7,2.4,13.8-1.5,19.8-4.8
				c9.6-5.6,16.6-14.5,23.8-22.7c9.6-11,15.7-24.3,23.4-36.5c6.8-11.3,14.6-21.9,20.3-33.8c-7.7,1.2-15.8,3.5-20.8,10
				c-7.8,9.8-16.5,18.8-24.5,28.4c-17.7,20.1-35.5,40.2-54.6,59c-8.2,7.9-17.1,15.3-27.7,19.6c-12.3-0.6-24.7,3.1-36.7-1.2
				c1.8-0.3,3.6-0.6,5.5-1c0.7-3.3,0.7-7.1,3.4-9.6c4.1-4.3,8.4-8.5,10.6-14.2c17.5-17.6,35.8-34.4,53.6-51.7
				c9.2-8.4,17.7-17.6,26.8-26.1c-19.2,3.3-38.6,5.3-57.8,8.5c8.1-10.1,17.2-19.3,26.2-28.7c18.5-19,36.8-38.2,55.3-57.2
				c14.7-15,29.1-30.2,43.6-45.4c22.3-23.2,43.8-47.2,67.5-69c14.8-14.1,30.2-28,41.1-45.5C491.3,431.2,496.4,413.2,496.7,395.1
				 M478.6,699.2c10.3,14.3,20.5,28.5,31.3,42.4c2,2.2,3.8,5.5,7.3,5.5c7.2,0.5,14.4,0.2,21.6,0.4c-7.5-8.6-14.9-17.1-22.5-25.6
				c-8.9-9.9-17.1-20.8-28.2-28.4C484.9,695.4,481.7,697.3,478.6,699.2z"/>
		</g>
		<g id="_x23_9abbd2ff">
			<path class="st32" d="M630.5,360.6c5.3-5,11.3-11.7,19.5-10.2c21.7,2.5,42.9,7.6,64.3,12c6.4,1.3,12.7,3.3,18.9,5.5
				c-17.6-3.5-35.5-5.5-53.4-6.9C663.4,359.9,646.9,361.6,630.5,360.6z"/>
		</g>
		<g id="_x23_52bac6ff">
			<path class="st33" d="M583.4,385c4.7-9.4,13.3-15.9,22.1-21.2c4.7,2.9,9.6,5.5,14.5,8c-6.5,7.6-13.1,15.6-16.2,25.3
				c-3.2,10.8-1.8,22.5,1.4,33.2c-2.8,1.5-5.3,5.8-8.7,3.3c-6.2-5.1-10.2-12.3-15.2-18.5C577.6,405.4,578.3,394.1,583.4,385z"/>
		</g>
		<g id="_x23_50bbc6ff">
			<path class="st34" d="M533.3,393.3c-0.4-4.7,4-7.5,6.7-10.7c1.4,30.9,21,56.3,40.1,79.1c19.3,22.5,30.5,51.4,31.9,81
				c0,6.5-0.4,12.9-1.1,19.4c-0.2-0.3-0.7-0.8-1-1.1c-9.1-2.6-14.8-10.2-21.4-16.3c0.4-14.3-1.5-28.7-8.2-41.5
				c-3.1-8.5-7.1-16.6-12.1-24.1c4.2,4.8,9.8,8,14.6,12.2c-1.2-3.3-2.5-6.6-3.8-9.9c1.6-3.1,3.3-6.2,4.9-9.3
				c-5.8-2.3-11.7-4.7-17.6-6.7c-5.4-2.3-4.2-9.1-5-13.8c0-5.6-3.5-10.1-6.3-14.6c-5.2-8-8.2-17.2-13.1-25.4
				C538.7,405.7,534.4,400.1,533.3,393.3z"/>
		</g>
		<g id="_x23_3da8bdff">
			<path class="st35" d="M519,404.3c6.1,12,8.1,25.5,14.4,37.4c3.8,7.6,13.5,12.4,12.6,21.8c-16.3-6-34.3-5.1-50.9-0.6
				c1.3-2.4,2.6-4.9,3.9-7.3c6.1-11.5,10.6-23.8,14.1-36.4c0.3,0.6,0.8,1.9,1.1,2.6C515.9,416,517.4,410.1,519,404.3z"/>
		</g>
		<g id="_x23_6bbec9ff">
			<path class="st36" d="M581.3,415.1c5,6.2,9,13.4,15.2,18.5c3.4,2.6,6-1.8,8.7-3.3c3.8,13.1,10.3,25.3,14.8,38.1
				c-8.3-10.6-16.9-20.9-25.9-30.9C588.3,431.1,583.9,423.4,581.3,415.1z"/>
		</g>
		<g id="_x23_0f2f52ff">
			<path class="st37" d="M480.1,455.1c6.3,0.1,12.6,0.3,18.9,0.5c-1.3,2.4-2.6,4.9-3.9,7.3c16.6-4.5,34.6-5.5,50.9,0.6
				c8.1,4,15.3,9.6,22.1,15.5c5,7.5,9,15.7,12.1,24.1c1.1,11.5,1.8,23.2-0.6,34.6c-4.5,22.7-19,42-34.9,58.2
				c-14.4,13.3-30.8,24.1-47.9,33.4c-3.4,1.8-6.8,3.4-10.2,5.1c0.3-3.1,0.7-6.3,1.1-9.4c-3.3-2.5-6.5-4.9-9.7-7.4
				c20.3-9.7,39.8-21.7,56-37.3c12.3-12,22.2-26.8,26.2-43.6c1.8-8.3,2.2-16.9,0.8-25.3c-0.7-3.5-1.9-6.9-3.3-10.3
				c-2.9-5.8-6.7-11.3-12.1-14.9c-2-1.5-4-2.9-6.1-4.3c-3.4-2.3-6.7-5.2-11.1-5.3c-16.9-2.5-33.4,3.2-48.9,9.4c1-2.9,1.7-6,3.3-8.7
				c1.9-1.8,4.6-2.5,6.9-3.6c-2.2-3.3-4.4-6.6-6.6-9.8c-3.2,3.9-6.4,7.7-10.1,11.1C474.5,468,481,462.7,480.1,455.1z"/>
		</g>
		<g id="_x23_e6f0f4ff">
			<path class="st38" d="M482.4,488.8c17-8.6,37-13.4,55.6-7.3c-5.9,1.9-11.2,5.1-15.3,9.8c-15.1,2.2-29.8,6.9-43,14.7
				c-25.4,15.5-45.4,37.7-66,58.8c-11.2,12.3-23.6,23.4-34,36.3c19.4-5.3,37.9-13.2,56.5-20.5c15.2-5.9,29.1-14.8,44.5-20.2
				c-39.4,33.9-89.1,53.4-139.4,64.4c5-6.3,10.6-12.1,16.1-17.9c20.7-21.5,40.7-43.6,61.3-65.3C437.8,521.7,457.3,501.1,482.4,488.8
				z"/>
		</g>
		<g id="_x23_c0dee8ff">
			<path class="st39" d="M538,481.5l1.4,0.4c2.1,1.3,4.1,2.8,6.1,4.3c-3.3,1.9-6.3,4.3-9.1,7c-4.6-0.9-9.2-1.4-13.8-1.8
				C526.8,486.7,532.1,483.4,538,481.5z"/>
		</g>
		<g id="_x23_93c4d3ff">
			<path class="st40" d="M536.5,493.2c2.7-2.7,5.8-5.1,9.1-7c5.4,3.6,9.2,9.2,12.1,14.9c-3.1,1.8-6.1,3.6-9.2,5.4
				c-2.2-3.7-4.8-7.2-7.8-10.3C539.3,495.2,537.9,494.1,536.5,493.2z"/>
		</g>
		<g id="_x23_3fb1c1ff">
			<path class="st41" d="M479.7,506.1c13.1-7.8,27.9-12.6,43-14.7c4.6,0.4,9.3,1,13.8,1.8c1.4,1,2.8,2,4.2,3.1
				c1.2,9.3,1.5,19-1.4,28c-3.8,9.7-8.9,19.2-16.3,26.7c-6.4,6.3-12.6,13.7-21.6,16.2c3.4-8.3,5.9-17,7.7-25.8
				c0.9-3.7,1.7-7.5,2.6-11.3c-9.2,11.2-19.3,21.8-30.9,30.4c-15.4,5.4-29.3,14.2-44.5,20.2c-18.7,7.3-37.2,15.2-56.5,20.5
				c10.5-12.9,22.9-24,34-36.3C434.2,543.8,454.3,521.5,479.7,506.1z"/>
		</g>
		<g id="_x23_488ca8ff">
			<path class="st42" d="M540.7,496.2c2.9,3.1,5.6,6.6,7.8,10.3c1.4,5.6,2.4,11.3,3.6,17c4-3.2,8-6.8,8.9-12.2
				c1.4,8.4,1,17-0.8,25.3c-8.4-1.3-14.9-7-20.9-12.5C542.2,515.2,541.9,505.6,540.7,496.2z"/>
		</g>
		<g id="_x23_67a2b6ff">
			<path class="st43" d="M557.7,501.1c1.4,3.3,2.6,6.7,3.3,10.3c-0.9,5.3-4.9,9-8.9,12.2c-1.2-5.7-2.2-11.4-3.6-17
				C551.5,504.7,554.6,502.9,557.7,501.1z"/>
		</g>
		<g id="_x23_2e7796ff">
			<path class="st44" d="M580.2,503.2c6.7,12.8,8.6,27.3,8.2,41.5c-0.6,21.8-7.4,43-17.8,62c-4-4.5-8-9.7-13.8-12.1
				c-4-1.6-8.3,0-12.1,1.2c15.9-16.2,30.4-35.4,34.9-58.2C582.1,526.4,581.3,514.6,580.2,503.2z"/>
		</g>
		<g id="_x23_357598ff">
			<path class="st45" d="M539.3,524.2c6,5.5,12.6,11.2,20.9,12.5c-3.9,16.9-13.9,31.6-26.2,43.6c-16.3,15.6-35.7,27.6-56,37.3
				c-16.2,6.5-32.4,14.1-49.8,16.9c20.5-11.5,41.6-23.4,56.6-41.9c6.5-7.9,11.9-16.6,16.6-25.7c9-2.5,15.2-9.8,21.6-16.2
				C530.4,543.5,535.4,534,539.3,524.2z"/>
		</g>
		<g id="_x23_e0eaefff">
			<path class="st46" d="M509,541.3c-1.8,8.8-4.3,17.4-7.7,25.8c-4.7,9.1-10.1,17.8-16.6,25.7c-15,18.5-36.1,30.4-56.6,41.9
				c-8.6,3.3-17.4,6.1-26.4,8.4c-32.2,8.5-65,15-97.9,20c4.5-4.9,8.3-11.9,15.7-12.7c46.4-9.5,93.5-21.4,133.9-47.3
				C477.4,588.6,499.8,568.5,509,541.3z"/>
		</g>
		<g id="_x23_d0eaecff">
			<path class="st47" d="M611.9,542.7c1.8,9.4,5,18.4,8.2,27.4c-5.5,13-13.1,25.1-22.4,35.7c3.3-14.9,12.2-28.1,13.1-43.6
				C611.5,555.7,611.9,549.2,611.9,542.7z"/>
		</g>
		<g id="_x23_49b5c2ff">
			<path class="st48" d="M588.4,544.7c6.6,6.1,12.3,13.7,21.4,16.3c0.2,0.3,0.7,0.8,1,1.1c-0.9,15.5-9.8,28.8-13.1,43.6
				c-16,18.7-36.9,32.8-59.2,42.9c11.8-13.1,23.8-26.2,32.1-42C581,587.7,587.9,566.5,588.4,544.7z"/>
		</g>
		<g id="_x23_2d6a8eff">
			<path class="st49" d="M544.7,595.9c3.8-1.2,8.1-2.9,12.1-1.2c5.8,2.4,9.7,7.5,13.8,12.1c-8.3,15.8-20.3,28.9-32.1,42
				c-7.3,3.8-15.2,6.1-23.2,8c4.8-8.8,9.8-17.5,13.7-26.7c-9,7.4-17.6,15.2-27.2,21.7c-1.8-4-3.4-8-5-12c-0.1-3.5-0.1-6.9,0-10.4
				C513.9,620,530.3,609.2,544.7,595.9z"/>
		</g>
		<g id="_x23_335b84ff">
			<path class="st50" d="M486.6,634.5c3.4-1.7,6.8-3.3,10.2-5.1c-0.1,3.5-0.1,6.9,0,10.4c1.6,4,3.2,8,5,12
				c-12.8,8.6-27,15.3-41.9,19.4c-22.3,6.4-45.8,5.2-68.7,4.5c2.4-3.5,4.3-8,8.3-9.9c5.2-2.5,10.9-3.7,16.4-5.3
				C440,653.1,464.3,646.2,486.6,634.5z"/>
		</g>
		<g id="_x23_305f8cff">
			<path class="st51" d="M349.8,680.8c5-6.5,13.1-8.8,20.8-10c-5.7,11.9-13.6,22.6-20.3,33.8c-7.6,12.3-13.8,25.6-23.4,36.5
				c-7.2,8.2-14.3,17.1-23.8,22.7c-6,3.4-12.8,7.2-19.8,4.8c7.1-9.5,14-19.1,20.9-28.7c7.1-10.2,15.1-19.9,21-30.9
				C333.3,699.6,342,690.6,349.8,680.8z"/>
		</g>
		<g id="_x23_071029ff">
			<path class="st52" d="M459.5,747.9c9.8-0.9,19.7-0.6,29.5-0.2C479.5,751.2,469.3,750.3,459.5,747.9z"/>
		</g>
	</g>
	<g>
		<path class="st53" d="M200.8,965.1v-6.2l12.8-4.1c0.9-0.3,1.7-0.7,2.3-1.4c0.6-0.6,0.9-1.6,0.9-2.8v-90.1c0-1.2-0.3-2-0.9-2.7
			c-0.6-0.6-1.3-1-2.3-1.3l-12.8-4.2v-6H250v6l-12.7,4.2c-0.9,0.3-1.7,0.7-2.3,1.4c-0.6,0.6-0.9,1.5-0.9,2.6v46.9l46.8-50.6
			l-7.8-4.5v-6h38.4v6l-12.8,4.1c-1,0.3-2.2,0.9-3.4,1.6c-1.2,0.7-2.4,1.7-3.5,2.8l-34.1,35.8l40,53.4c0.7,0.9,1.6,2,2.7,3.1
			c1.1,1.1,2.2,1.8,3.1,2.2l11.8,3.9v5.9h-41.7v-5.9l6.7-3.8l-34.8-47.2l-11.5,6.6v35.9c0,1.2,0.3,2.1,0.9,2.8
			c0.6,0.6,1.4,1.1,2.4,1.4l12.7,4.1v6.2H200.8z"/>
		<path class="st53" d="M316.1,965.1v-6.2l8.4-3.7c2-0.9,3.4-2.5,4.2-4.6l33.7-86.3l9.8-19.8h9.4l41.8,106.3
			c0.4,0.9,0.9,1.8,1.6,2.7c0.7,0.9,1.5,1.5,2.4,1.9l8.8,3.5v6.2h-43.9v-6.2l13.9-4.8l-29.6-75.9l-3.2-11.2h-1.4l-32.7,86.7
			l14.1,5.2v6.2H316.1z M349.2,923.5l4.1-11.5h38.2l4.1,11.5H349.2z"/>
		<path class="st53" d="M445.2,965.1v-6.2l12.8-4.1c0.8-0.3,1.6-0.7,2.2-1.4c0.6-0.6,1-1.6,1-2.8v-90.1c0-1.2-0.3-2-0.9-2.7
			c-0.6-0.6-1.3-1-2.3-1.3l-12.8-4.2v-6h49.4v6l-12.8,4.2c-0.9,0.3-1.6,0.7-2.3,1.4c-0.6,0.6-1,1.5-1,2.6V955h42.7
			c0.9,0,1.7-0.3,2.4-1c0.7-0.6,1.1-1.5,1.2-2.5l3.6-24.3h10v37.9H445.2z"/>
		<path class="st53" d="M544.1,965.1v-6.2l8.4-3.7c2-0.9,3.4-2.5,4.2-4.6l33.7-86.3l9.8-19.8h9.4l41.8,106.3
			c0.4,0.9,0.9,1.8,1.6,2.7c0.7,0.9,1.5,1.5,2.4,1.9l8.8,3.5v6.2h-43.9v-6.2l13.9-4.8l-29.6-75.9l-3.2-11.2H600l-32.7,86.7l14.1,5.2
			v6.2H544.1z M577.3,923.5l4.1-11.5h38.2l4.1,11.5H577.3z"/>
		<path class="st53" d="M673.2,965.1v-6.2l12.8-4.6c0.9-0.3,1.6-0.7,2.2-1.4c0.6-0.6,0.9-1.5,0.9-2.7v-89.6c0-1.2-0.3-2-0.9-2.7
			c-0.6-0.6-1.3-1-2.3-1.3l-12.8-4.2v-6h42.7l27.7,78.4l4.1,14.4h1.3l32.1-92.8h42.1v6l-12.6,4.2c-0.9,0.3-1.7,0.7-2.3,1.4
			c-0.7,0.6-1,1.5-1,2.6v90.1c0,1.2,0.3,2.1,0.9,2.7c0.6,0.6,1.4,1.1,2.4,1.4l12.6,4.1v6.2h-49v-6.2l12.6-4.1
			c0.9-0.3,1.7-0.7,2.4-1.4c0.6-0.6,1-1.6,1-2.8v-95.3h-1.6l-3.9,12.3l-28.2,79.1l-7.9,18.4h-8.4l-34.5-97.4l-3.8-12.3h-1.3v94.8
			c0,1.2,0.3,2.1,0.9,2.7c0.6,0.6,1.4,1,2.2,1.4l12.5,4.6v6.2H673.2z"/>
	</g>
</g>
</svg>
